<svg width="34" height="60" viewBox="0 0 34 60" fill="none" xmlns="http://www.w3.org/2000/svg">
<path d="M11.2314 31.9461C11.2314 31.9461 15.0527 33.1117 15.5544 35.2363C16.0265 37.2207 12.456 38.1354 12.456 38.1354C12.456 38.1354 18.6527 38.8141 18.7339 36.4092C18.815 34.0043 16.565 31.6215 14.9421 31.7396C13.3191 31.8576 11.2314 31.9461 11.2314 31.9461Z" fill="#4285F9"/>
<path d="M11.8808 33.2745C10.589 33.0603 9.26737 33.1054 7.99313 33.4073C6.78736 33.6829 5.6677 34.2503 4.73249 35.0598L4.51118 35.2811L4.41527 35.3917C4.41527 35.3917 4.41527 35.4286 4.41527 35.4508C4.35646 35.5517 4.30707 35.6579 4.26773 35.768C4.15953 36.1408 4.07575 36.5203 4.01692 36.904C3.75654 38.6998 3.7169 40.5207 3.89888 42.3261C4.06556 44.2608 4.35633 46.1828 4.76937 48.0802C5.14013 49.776 5.63322 51.4426 6.24478 53.0671C6.62838 54.0999 7.08576 55.1105 7.521 56.1064L7.84559 56.8441L8.10379 57.6704C8.25871 58.1941 8.421 58.7105 8.59805 59.2195C8.80461 59.8466 8.37674 60.1122 7.49887 59.9572C6.95353 59.8358 6.43073 59.6292 5.9497 59.345C5.65465 59.1821 5.37555 58.992 5.11609 58.7769C4.97593 58.6663 4.86527 58.5409 4.72511 58.4302C4.62553 58.2881 4.53439 58.1403 4.45216 57.9876C3.35473 55.8412 2.44876 53.6022 1.74479 51.2966C1.0559 48.9813 0.610866 46.6004 0.416925 44.1925C0.298892 42.7171 0.121843 41.2417 0.033319 39.7294C-0.0111063 38.9407 -0.0111063 38.1501 0.033319 37.3614C0.102976 36.488 0.286497 35.6274 0.579219 34.8016C0.782377 34.2727 1.06064 33.7758 1.40545 33.3262L1.7079 32.9647L1.97348 32.7139C2.14486 32.5469 2.32724 32.3917 2.51938 32.2491C3.24809 31.6765 4.05241 31.2073 4.90954 30.8549C6.53995 30.205 8.27437 29.8552 10.0292 29.8221C12.1617 29.7449 14.2809 30.188 16.2038 31.1131C18.0496 31.9414 19.4104 33.5744 19.8923 35.5393C19.9326 35.7584 19.9548 35.9805 19.9587 36.2032C19.9587 36.4245 19.9144 36.6458 19.8997 36.8671C19.8849 37.0885 19.73 37.2803 19.6341 37.4794L19.2505 38.018L18.7636 38.4753C18.5916 38.6125 18.4091 38.7358 18.2177 38.8442C17.9008 39.0268 17.5704 39.1846 17.2292 39.3163C16.076 39.7252 14.8721 39.9734 13.6513 40.054C13.0612 40.1278 12.4857 40.1057 11.8956 40.1278C11.3054 40.1499 10.7226 40.1278 10.1472 40.0466C9.57182 39.9655 9.13657 39.9876 8.67182 39.8917C8.20707 39.7958 7.81609 39.7221 7.49887 39.6335C7.23872 39.5446 6.99085 39.4232 6.76117 39.2721C6.42996 39.0645 6.18799 38.741 6.08248 38.3647C6.0197 38.2119 5.97034 38.0539 5.93494 37.8926C5.87593 37.4204 6.72429 37.1548 8.0374 37.1548C9.93705 37.3209 11.8476 37.3209 13.7472 37.1548C14.5876 37.0839 15.4142 36.8977 16.2038 36.6016C16.3661 36.5278 16.4989 36.4467 16.6464 36.3803C16.7939 36.3139 16.7423 36.3139 16.7497 36.3065V36.3065C16.6833 36.3065 16.7497 36.3581 16.7497 36.3065C16.7279 36.2607 16.7033 36.2164 16.6759 36.1737C16.6286 36.0923 16.5769 36.0135 16.521 35.9376C16.3882 35.7901 16.2997 35.613 16.1669 35.4581C15.8685 35.0988 15.5119 34.7921 15.112 34.5508C14.1351 33.9105 13.0296 33.4925 11.8735 33.3262L11.8808 33.2745Z" fill="#4285F9"/>
<path d="M9.80024 8.62744C9.88877 8.23646 9.97729 7.85285 10.0806 7.46187L10.1838 7.05613C10.2118 6.8816 10.2513 6.7091 10.3019 6.53974L10.6043 5.51433C10.7814 4.82089 11.0765 4.2086 11.2978 3.5668L11.7478 2.7627L11.9691 2.36434L12.2125 2.04713C12.715 1.28566 13.4273 0.686085 14.2633 0.320903C14.6588 0.140311 15.0837 0.0328387 15.5174 0.00369072C15.7667 -0.0111476 16.0165 0.0188352 16.2551 0.0922151C16.4641 0.163302 16.6645 0.257318 16.8527 0.372542C17.3421 0.698565 17.7631 1.11706 18.092 1.60451C18.5002 2.24877 18.79 2.96077 18.9478 3.70696C19.1246 4.50658 19.2453 5.31757 19.3092 6.134C19.3092 6.55449 19.3682 6.97499 19.383 7.39548C19.3978 7.81597 19.383 8.2881 19.383 8.47252C19.383 9.4758 19.383 10.4717 19.3019 11.4676C19.1986 13.4446 19.051 15.4069 18.7781 17.3692C18.5789 19.1028 18.3724 20.8438 18.1732 22.5331C18.0028 24.7868 17.4411 26.9935 16.5133 29.0544C16.1814 29.6962 15.7756 29.438 15.4658 28.752C15.0157 27.8022 14.7838 26.7637 14.7871 25.7126C14.824 25.1741 14.7871 24.6282 14.8609 24.0897L14.9863 22.4741L15.1929 19.2135C15.2592 18.1291 15.3256 17.0004 15.3847 15.9455C15.4437 14.8905 15.5986 13.7323 15.7019 12.6701C15.8285 11.3457 15.8409 10.0129 15.7388 8.68646L15.7314 8.24383V7.91187L15.6429 7.21843C15.6 6.9148 15.4945 6.62339 15.333 6.36269C15.2558 6.23802 15.1047 6.18058 14.9642 6.22253C14.8449 6.26375 14.7382 6.33487 14.6543 6.42908C14.2913 6.88102 14.0206 7.39986 13.8576 7.95613C13.8151 8.05733 13.7782 8.16076 13.747 8.26597L13.5478 8.90039C13.4224 9.33564 13.2896 9.7635 13.1789 10.2061C12.9355 11.084 12.7437 11.984 12.5814 12.884C12.0632 15.6158 11.7501 18.3825 11.6445 21.161C11.6253 23.2789 11.7708 25.3951 12.0797 27.4905C12.1388 27.9479 12.242 28.3831 12.2937 28.8405C12.3464 29.45 12.3091 30.064 12.183 30.6626C12.0613 31.0292 11.842 31.3557 11.5486 31.6069C11.4309 31.7282 11.3052 31.8416 11.1724 31.9462C10.9584 32.0864 10.7224 31.9979 10.4347 31.7175C9.99575 31.3318 9.65232 30.8495 9.43139 30.3085C9.05554 29.3467 8.80752 28.3398 8.69369 27.3135C8.54615 26.2954 8.42812 25.2553 8.3691 24.2225C8.25603 22.1332 8.27574 20.0388 8.42812 17.952C8.54123 16.3979 8.7109 14.8438 8.93713 13.2897C9.05516 12.5078 9.18795 11.7332 9.32811 10.9586C9.46828 10.184 9.58631 9.39465 9.74123 8.61269L9.80024 8.62744Z" fill="#4285F9"/>
<path d="M28.7596 12.7294C28.9441 12.1097 29.1064 11.4826 29.2465 10.8704C29.3867 10.2581 29.549 9.6679 29.6449 9.08511V8.87118V8.73839C29.6481 8.70404 29.6481 8.66946 29.6449 8.63511C29.6529 8.56156 29.6529 8.48736 29.6449 8.4138C29.6525 8.24031 29.6089 8.06843 29.5195 7.91954C29.4629 7.80106 29.3264 7.74392 29.2023 7.78675C29.103 7.85285 29.0093 7.92686 28.9219 8.00807C28.8385 8.07402 28.7619 8.14816 28.6932 8.22938C28.6439 8.2764 28.5994 8.32831 28.5605 8.38429L28.5162 8.43593L28.4424 8.56872L28.2801 8.84167C27.8596 9.57937 27.4834 10.3171 27.0555 11.1064C26.2293 12.6408 25.4695 14.2417 24.776 15.872C24.1638 17.3474 23.699 18.8228 23.1974 20.2982C22.8949 21.2498 22.6367 22.2162 22.3564 23.1679L21.9285 24.5843C21.8031 25.0416 21.5375 25.4916 21.3974 25.9047C21.3015 26.1556 21.1613 26.1777 20.9695 26.2293C20.7777 26.281 20.5047 26.1777 20.2318 25.8531C19.9025 25.452 19.6341 25.0045 19.4351 24.5252C19.2257 23.9651 19.1623 23.3609 19.2506 22.7695C19.4129 21.6925 19.6195 20.6375 19.8556 19.5974C20.0648 18.5516 20.3609 17.5251 20.7408 16.5285C21.4835 14.5193 22.3761 12.5687 23.4113 10.6933C23.7285 10.1326 24.031 9.54986 24.326 8.96708L25.3146 7.21135L25.6613 6.76872C25.7941 6.55479 25.9195 6.34086 26.0744 6.11955C26.3695 5.67692 26.6793 5.26381 26.9892 4.86545C27.5333 4.1525 28.2596 3.59947 29.0916 3.26463C29.5327 3.1058 30.0153 3.1058 30.4564 3.26463C30.6703 3.37529 30.8842 3.47857 31.0982 3.5966L31.6736 4.00234C32.3699 4.72656 32.8436 5.63554 33.0383 6.62118C33.1547 7.15437 33.214 7.6984 33.2154 8.24413C33.2359 8.4896 33.2359 8.73636 33.2154 8.98183C33.2154 9.18101 33.2154 9.38757 33.1711 9.572C33.0982 10.3187 32.9674 11.0586 32.7801 11.7851C32.3135 13.5201 31.7344 15.2229 31.0465 16.8826C30.0506 19.3761 28.8334 21.7588 27.6826 24.1195C26.7752 25.9564 25.9785 27.808 25.0269 29.6228C24.8129 30.0211 24.6211 30.4269 24.3777 30.8178C24.097 31.3652 23.696 31.8419 23.2047 32.2121C22.8449 32.3868 22.4355 32.4312 22.0465 32.3375C21.8744 32.3167 21.7042 32.2821 21.5375 32.2342C21.2941 32.1383 21.1908 31.8949 21.1687 31.4965C21.1247 31.0073 21.222 30.5157 21.449 30.0801L23.7211 25.2556C24.4588 23.6031 25.1965 21.9211 25.9342 20.2318C27.0085 17.7627 27.9154 15.2242 28.649 12.6335L28.7596 12.7294Z" fill="#4285F9"/>
<path d="M25.0119 46.6047C23.5439 48.4724 21.928 50.219 20.1799 51.8276C19.5609 52.4597 18.8951 53.0441 18.1881 53.576C17.5164 54.0689 16.7914 54.4846 16.0267 54.8153C15.5989 55.0003 15.1507 55.1341 14.6914 55.2137C14.1463 55.315 13.5848 55.2846 13.0537 55.1251L12.6332 54.9776C12.5078 54.9112 12.3824 54.83 12.2644 54.7563C12.0182 54.601 11.7989 54.4067 11.6152 54.1809C11.4338 53.9556 11.2825 53.7076 11.1652 53.4432C11.0729 53.2032 10.9989 52.9566 10.9439 52.7055C10.8144 51.8223 10.9135 50.9206 11.2316 50.0866C11.6903 48.793 12.3258 47.5691 13.1201 46.4497C14.0564 45.0323 15.256 43.8077 16.6537 42.8424C17.0963 42.5473 17.3177 42.9088 17.3103 43.5284C17.2859 44.3224 17.0294 45.0918 16.5726 45.7415C16.3218 46.0514 16.1152 46.3833 15.8865 46.7006C15.7685 46.8629 15.6652 47.0252 15.5693 47.1874L15.23 47.6522C14.8197 48.2602 14.4524 48.8962 14.1308 49.5555C13.8122 50.1348 13.5834 50.7591 13.4521 51.4071C13.4015 51.6496 13.3817 51.8974 13.3931 52.1448C13.43 52.3071 13.43 52.4473 13.4964 52.521C13.5627 52.5948 13.5332 52.5727 13.5627 52.6022C13.5812 52.6348 13.6141 52.6567 13.6513 52.6612C13.6513 52.6612 13.6955 52.7055 13.7472 52.7055C13.7961 52.6979 13.8458 52.6979 13.8947 52.7055C14.2335 52.6655 14.5602 52.5549 14.8537 52.3809C15.6315 51.9189 16.3521 51.3667 17.0004 50.7358C18.5783 49.2654 19.9975 47.6335 21.2349 45.867C22.0228 44.7736 22.747 43.6357 23.4037 42.4588C23.8906 41.5735 24.3775 40.6809 24.7685 39.7662C24.8717 39.5375 24.9529 39.3014 25.0414 39.0727C25.0857 38.9621 25.1299 38.844 25.1668 38.726L25.2553 38.453C25.3515 38.1709 25.4159 37.879 25.4471 37.5826C25.5554 37.1633 25.3715 36.7232 24.9971 36.5055C24.6283 36.3063 24.1562 36.5867 23.8906 36.7932C23.7578 36.8965 23.6471 37.0367 23.5512 37.1104C23.4811 37.1736 23.3938 37.2147 23.3004 37.2285C23.3004 37.2285 23.1086 37.2285 23.0201 37.2285C22.9122 37.2395 22.8034 37.2395 22.6955 37.2285C22.4894 37.2086 22.2903 37.1431 22.1127 37.0367C21.9121 36.888 21.7311 36.7145 21.5742 36.5203C21.4285 36.3594 21.2999 36.1839 21.1906 35.9965C21.062 35.671 21.0163 35.3186 21.0578 34.9711C21.0562 34.7683 21.0964 34.5674 21.1758 34.3809C21.2178 34.2839 21.2671 34.1901 21.3234 34.1006L21.4119 33.9604L21.4635 33.8867C21.4635 33.8203 21.4635 33.8203 21.4635 33.8129V33.8129L21.5226 33.7539C22.0227 33.3344 22.5474 32.9452 23.0939 32.5883C23.6179 32.2521 24.2013 32.0193 24.8127 31.9022C25.0934 31.8597 25.3773 31.8424 25.6611 31.8506H26.0889L26.4947 31.9391C27.0594 32.0798 27.5909 32.3305 28.0586 32.6768L28.6857 33.4145C28.8836 33.6554 29.0497 33.9207 29.1799 34.2039C29.3053 34.4916 29.3791 34.8088 29.4898 35.1186C29.6004 35.4285 29.5783 35.7973 29.6225 36.1367C29.6668 36.476 29.6225 36.8744 29.5857 37.2358C29.5374 37.6129 29.4585 37.9855 29.3496 38.3498C29.2714 38.738 29.1654 39.1202 29.0324 39.4932L28.8848 39.9358C28.848 40.0465 28.8111 40.1571 28.7668 40.2604C27.837 42.5494 26.5958 44.6992 25.0783 46.6489L25.0119 46.6047Z" fill="#4285F9"/>
<path d="M28.7599 49.1574C27.7105 50.5266 26.5693 51.823 25.3443 53.0377C24.8796 53.4656 24.4738 53.9377 23.9722 54.3287C23.0864 55.0245 22.1465 55.6486 21.1615 56.1951C20.6491 56.4794 20.1165 56.726 19.5681 56.9328C18.9865 57.1664 18.3714 57.3058 17.746 57.3459C17.1272 57.3687 16.5134 57.2261 15.9681 56.9328C15.3372 56.6327 14.8762 56.0631 14.714 55.3836C14.6399 54.9352 14.6936 54.475 14.8689 54.0557C15.0123 53.7055 15.22 53.3853 15.4812 53.1115C15.902 52.6347 16.4009 52.233 16.9566 51.9238C17.3033 51.7467 17.473 52.0271 17.5025 52.5213C17.5382 53.1115 17.458 53.7029 17.2665 54.2623C17.1807 54.4513 17.1164 54.6492 17.0747 54.8525C17.0747 54.9262 17.0747 54.8525 17.0747 54.8967V54.8967C17.0747 54.8967 17.0304 54.8967 17.1927 54.9853C17.4372 55.1217 17.7233 55.1637 17.9968 55.1033C18.217 55.078 18.4328 55.0235 18.6386 54.941C18.8599 54.823 19.0886 54.7418 19.3173 54.6016C20.4634 53.8548 21.4635 52.9048 22.2681 51.7984C23.2492 50.6107 24.3115 49.4599 25.2189 48.1689C25.7847 47.391 26.3044 46.5805 26.7755 45.7418C27.5113 44.5437 28.0377 43.229 28.332 41.8541C28.4205 41.4246 28.3715 40.978 28.1918 40.5779C28.1707 40.5147 28.1292 40.4602 28.0738 40.423C28.0415 40.3971 27.9955 40.3971 27.9632 40.423V40.423V40.423L28.1255 40.2902V40.2902L28.214 40.2238C28.2656 40.2238 28.332 40.1058 28.3615 40.0837C28.3925 40.0525 28.4198 40.0179 28.4427 39.9804C28.5164 39.8771 28.4427 39.8992 28.4427 40.1132C28.4276 40.2579 28.4276 40.4037 28.4427 40.5484C28.4427 40.6443 28.4427 40.7402 28.4427 40.8361V40.8877V40.8877L28.2804 40.9246C27.9709 41.0066 27.6455 41.0066 27.3361 40.9246C27.0152 40.772 26.7441 40.5316 26.5541 40.2312C26.4361 40.0689 26.3107 39.9214 26.2148 39.7664C26.0649 39.5026 26.0151 39.1935 26.0746 38.896C26.1235 38.5306 26.2861 38.1899 26.5394 37.9222C26.7757 37.6384 27.0515 37.39 27.3582 37.1845C27.9863 36.7755 28.7692 36.6828 29.4754 36.9337C29.9605 37.0733 30.4056 37.3261 30.7738 37.6714C30.8574 37.7451 30.9312 37.8189 30.9951 37.8927C31.0615 37.9664 31.1058 38.0255 31.1574 38.0919L31.4451 38.505C31.6048 38.7645 31.7335 39.0418 31.8287 39.3312C31.9242 39.5688 31.9935 39.8162 32.0353 40.0689C32.1754 40.8906 32.1604 41.7314 31.991 42.5476C31.8659 43.2122 31.6807 43.864 31.4377 44.4951C30.741 46.1684 29.8443 47.7512 28.7673 49.209L28.7599 49.1574Z" fill="#4285F9"/>
</svg>
